<svg xmlns="http://www.w3.org/2000/svg" xmlns:xlink="http://www.w3.org/1999/xlink" width="118.138" height="28.536" viewBox="0 0 118.138 28.536">
  <defs>
    <clipPath id="clip-path">
      <rect id="Rechteck_296" data-name="Rechteck 296" width="100.344" height="28.535" fill="#292c28"/>
    </clipPath>
    <clipPath id="clip-path-2">
      <rect id="Rechteck_296-2" data-name="Rechteck 296" width="12.804" height="3.641" fill="#292c28"/>
    </clipPath>
  </defs>
  <g id="Gruppe_823" data-name="Gruppe 823" transform="translate(-27.987 -25.878)">
    <g id="Gruppe_821" data-name="Gruppe 821" transform="translate(27.987 25.879)">
      <g id="Gruppe_820" data-name="Gruppe 820" clip-path="url(#clip-path)">
        <path id="Pfad_134" data-name="Pfad 134" d="M18.812,19.989a.378.378,0,0,1,.378-.378h5.393a.377.377,0,0,1,.377.378l-.008,4.78a3.767,3.767,0,0,1-3.767,3.768l-17.352.016A3.771,3.771,0,0,1,.192,25.767L6.46,20.6a.714.714,0,0,0-.238.6v.625a.755.755,0,0,0,.689.751h11.21a.754.754,0,0,0,.688-.751ZM14.346,5.982H3.771A3.767,3.767,0,0,1,0,2.213L0,.394A.377.377,0,0,1,.377.018H21.614Z" transform="translate(0 -0.017)" fill="#292c28" fill-rule="evenodd"/>
        <path id="Pfad_135" data-name="Pfad 135" d="M2288.6,28.486c-.412,0-.535-.114-.535-.506l0-27.6a.377.377,0,0,1,.377-.376h5.594a.376.376,0,0,1,.376.376l-.008,24.34a3.768,3.768,0,0,1-3.768,3.768Z" transform="translate(-2194.068 -0.001)" fill="#292c28"/>
        <path id="Pfad_136" data-name="Pfad 136" d="M715.5.619a.377.377,0,0,1,.377-.377h5.511a.377.377,0,0,1,.377.377l.017,21.441a.753.753,0,0,0,.754.753h3.987a.753.753,0,0,0,.753-.753l.005-15.5a.376.376,0,0,1,.376-.376h5.475a.377.377,0,0,1,.377.376s.012,15.477.011,15.488a.757.757,0,0,0,.709.769h4.081a.752.752,0,0,0,.71-.751L739.048.627a.377.377,0,0,1,.376-.378h5.522a.377.377,0,0,1,.377.378l-.033,24.345a3.766,3.766,0,0,1-3.767,3.767l-22.279.026A3.768,3.768,0,0,1,715.477,25Z" transform="translate(-686.085 -0.232)" fill="#292c28"/>
        <path id="Pfad_137" data-name="Pfad 137" d="M1567.62,1.032A.377.377,0,0,1,1568,.656h24.094a.377.377,0,0,1,.377.376V14.284a3.769,3.769,0,0,1-3.763,3.583l-14.508,0a.375.375,0,0,0-.327.373v.3l0,3.951a.754.754,0,0,0,.752.7h10.84a.755.755,0,0,0,.751-.691V20.6a.377.377,0,0,1,.377-.376h5.514a.376.376,0,0,1,.377.376v4.827a3.767,3.767,0,0,1-3.768,3.716l-17.334.008a3.768,3.768,0,0,1-3.768-3.768Zm6.253,10.324a.753.753,0,0,0,.754.753h10.84a.752.752,0,0,0,.753-.753V6.966a.377.377,0,0,0-.376-.377h-11.6a.377.377,0,0,0-.376.377Z" transform="translate(-1503.216 -0.629)" fill="#292c28" fill-rule="evenodd"/>
        <path id="Pfad_138" data-name="Pfad 138" d="M2.364,16.954,22.972.018h3a.376.376,0,0,1,.377.376s0,3.489,0,3.5a2.712,2.712,0,0,1-.782,2.069L1.55,25.767a3.781,3.781,0,0,1-.127-.863l-.007-5.729a2.737,2.737,0,0,1,.948-2.22" transform="translate(-1.358 -0.017)" fill="#4b8860"/>
      </g>
    </g>
    <g id="Gruppe_822" data-name="Gruppe 822" transform="translate(146.125 29.52) rotate(180)">
      <g id="Gruppe_820-2" data-name="Gruppe 820" clip-path="url(#clip-path-2)">
        <path id="Pfad_134-2" data-name="Pfad 134" d="M2.4,2.566a.048.048,0,0,1,.048-.048h.688a.048.048,0,0,1,.048.048v.61a.481.481,0,0,1-.481.481l-2.214,0A.481.481,0,0,1,.025,3.3l.8-.66a.091.091,0,0,0-.03.076V2.8a.1.1,0,0,0,.088.1h1.43A.1.1,0,0,0,2.4,2.8ZM1.831.779H.481A.481.481,0,0,1,0,.3V.066A.048.048,0,0,1,.048.018h2.71Z" transform="translate(0 -0.018)" fill="#292c28" fill-rule="evenodd"/>
        <path id="Pfad_135-2" data-name="Pfad 135" d="M2288.129,3.636c-.053,0-.068-.015-.068-.065V.049A.048.048,0,0,1,2288.11,0h.714a.048.048,0,0,1,.048.048V3.155a.481.481,0,0,1-.481.481Z" transform="translate(-2276.068 -0.001)" fill="#292c28"/>
        <path id="Pfad_136-2" data-name="Pfad 136" d="M715.48.29a.048.048,0,0,1,.048-.048h.7a.048.048,0,0,1,.048.048l0,2.736a.1.1,0,0,0,.1.1h.509a.1.1,0,0,0,.1-.1V1.048A.048.048,0,0,1,717.031,1h.7a.048.048,0,0,1,.048.048s0,1.975,0,1.976a.1.1,0,0,0,.09.1h.521a.1.1,0,0,0,.091-.1l0-2.735a.048.048,0,0,1,.048-.048h.7a.048.048,0,0,1,.048.048l0,3.106a.481.481,0,0,1-.481.481l-2.843,0a.481.481,0,0,1-.481-.481Z" transform="translate(-711.727 -0.241)" fill="#292c28"/>
        <path id="Pfad_137-2" data-name="Pfad 137" d="M1567.615.7a.048.048,0,0,1,.048-.048h3.074a.048.048,0,0,1,.048.048V2.395a.481.481,0,0,1-.48.457h-1.851a.048.048,0,0,0-.042.048v.543a.1.1,0,0,0,.1.089h1.383a.1.1,0,0,0,.1-.088V3.2a.048.048,0,0,1,.048-.048h.7a.048.048,0,0,1,.048.048v.616a.481.481,0,0,1-.481.474h-2.212a.481.481,0,0,1-.481-.481Zm.8,1.317a.1.1,0,0,0,.1.1h1.383a.1.1,0,0,0,.1-.1v-.56a.048.048,0,0,0-.048-.048h-1.48a.048.048,0,0,0-.048.048Z" transform="translate(-1559.397 -0.653)" fill="#292c28" fill-rule="evenodd"/>
        <path id="Pfad_138-2" data-name="Pfad 138" d="M1.537,2.179,4.166.018h.382A.048.048,0,0,1,4.6.066s0,.445,0,.447a.346.346,0,0,1-.1.264L1.433,3.3a.482.482,0,0,1-.016-.11V2.462a.349.349,0,0,1,.121-.283" transform="translate(-1.409 -0.018)" fill="#292c28"/>
      </g>
    </g>
  </g>
</svg>
