<svg xmlns="http://www.w3.org/2000/svg" xmlns:xlink="http://www.w3.org/1999/xlink" width="74.014" height="16.687" viewBox="0 0 74.014 16.687">
  <defs>
    <clipPath id="clip-path">
      <rect id="Rechteck_145" data-name="Rechteck 145" width="59.385" height="16.687" fill="#292c28"/>
    </clipPath>
    <clipPath id="clip-path-2">
      <rect id="Rechteck_145-2" data-name="Rechteck 145" width="10.014" height="2.814" fill="#292c28"/>
    </clipPath>
  </defs>
  <g id="Gruppe_302" data-name="Gruppe 302" transform="translate(-20.369 -16.402)">
    <g id="Gruppe_299" data-name="Gruppe 299" transform="translate(20.369 16.402)">
      <g id="Gruppe_299-2" data-name="Gruppe 299" clip-path="url(#clip-path)">
        <path id="Pfad_99" data-name="Pfad 99" d="M13.964.037H.772A.666.666,0,0,0,.509.086.81.81,0,0,0,0,.842l.006.717A2.673,2.673,0,0,0,2.682,4.123H6.539a.375.375,0,0,1,.252.652L1.114,9.646a2.789,2.789,0,0,0-1.086,2.2l0,.858V13.9a2.81,2.81,0,0,0,2.81,2.81h9.048a2.81,2.81,0,0,0,2.81-2.81V11.7a.728.728,0,0,0-.728-.728H11.223a.728.728,0,0,0-.728.728V11.9a.728.728,0,0,1-.728.728H4.749a.373.373,0,0,1-.244-.655L14.2,3.85l0,0a1.344,1.344,0,0,0,.488-1V.765a.728.728,0,0,0-.728-.728" transform="translate(0 -0.034)" fill="#292c28"/>
        <path id="Pfad_100" data-name="Pfad 100" d="M214.815,13.081c-.067-1.047-.144-2.234-.144-5.41,0-1.867.072-3.444.135-4.836.03-.662.058-1.288.073-1.843a.8.8,0,0,0-.23-.581.848.848,0,0,0-.6-.255h-2.607a.847.847,0,0,0-.6.255.8.8,0,0,0-.231.582c.01.39.021.711.032,1.033.035,1.03.072,2.1.072,5.587,0,2.546-.1,4.677-.1,4.7a.418.418,0,0,1-.417.417h-1.451a.418.418,0,0,1-.417-.419c0-.028-.134-2.152-.134-4,0-1.626.133-4.259.134-4.279a.83.83,0,0,0-.834-.834H204.88a.831.831,0,0,0-.834.836c0,.019.124,2.869.124,4.448,0,1.828-.123,3.806-.124,3.835a.418.418,0,0,1-.417.417h-1.451a.419.419,0,0,1-.417-.422c0-.025-.1-2.535-.1-4.511,0-1.647.035-3.293.066-4.746.016-.755.031-1.469.038-2.063a.814.814,0,0,0-.238-.586.832.832,0,0,0-.6-.249h-2.607a.846.846,0,0,0-.6.254.8.8,0,0,0-.232.582c.014.618.045,1.379.079,2.185.061,1.483.13,3.163.13,4.718,0,1.971-.076,3.485-.137,4.7-.029.57-.056,1.108-.071,1.609a2.485,2.485,0,0,0,.714,1.817,2.671,2.671,0,0,0,1.906.807h12.151A2.686,2.686,0,0,0,214.191,16a2.429,2.429,0,0,0,.688-1.8c-.019-.413-.041-.758-.064-1.124" transform="translate(-180.279 -0.143)" fill="#292c28"/>
        <path id="Pfad_101" data-name="Pfad 101" d="M437.563,10.433H444.9a2.669,2.669,0,0,0,1.9-.806,2.489,2.489,0,0,0,.716-1.818c-.008-.259-.021-.543-.036-.844-.032-.652-.068-1.183-.068-2.119,0-1.269.038-2.177.069-2.908.014-.332.027-.645.035-.945a.8.8,0,0,0-.23-.582.847.847,0,0,0-.6-.255H433.738a.832.832,0,0,0-.6.25.813.813,0,0,0-.237.585c.007.573.022,1.229.037,1.922.032,1.437.067,3.066.067,4.934,0,2.115-.038,3.608-.069,4.807-.014.54-.027,1.051-.035,1.541a2.54,2.54,0,0,0,.74,1.834,2.62,2.62,0,0,0,1.88.789h7.894a.212.212,0,0,0,.066.011H444.9a2.62,2.62,0,0,0,2.621-2.624l0-1.969a.835.835,0,0,0-.834-.832h-2.575a.835.835,0,0,0-.834.834v.078a.418.418,0,0,1-.417.417h-5.3a.418.418,0,0,1-.417-.417V10.85a.418.418,0,0,1,.417-.417m-.417-4.3V4.66a.418.418,0,0,1,.417-.417h5.3a.418.418,0,0,1,.417.417V6.137a.418.418,0,0,1-.417.417h-5.3a.418.418,0,0,1-.417-.417" transform="translate(-395.185 -0.143)" fill="#292c28"/>
        <path id="Pfad_102" data-name="Pfad 102" d="M634.827,14.033c-.015-.5-.043-1.074-.073-1.678-.063-1.262-.135-2.693-.135-4.369,0-3.223-.083-4.6-.016-5.82.024-.44.047-.856.065-1.33a.793.793,0,0,0-.3-.651.887.887,0,0,0-.56-.187h-2.576a.878.878,0,0,0-.6.224.808.808,0,0,0-.263.612c.009.47.021.88.032,1.311.033,1.208.072,2.577.072,5.852,0,3.175-.038,4.79-.071,6.216-.013.548-.025,1.058-.033,1.608a.813.813,0,0,0,.264.612.875.875,0,0,0,.6.223h.978a2.67,2.67,0,0,0,1.9-.806,2.488,2.488,0,0,0,.716-1.818" transform="translate(-575.444 0.001)" fill="#292c28"/>
      </g>
    </g>
    <g id="Gruppe_300" data-name="Gruppe 300" transform="translate(94.383 19.217) rotate(180)">
      <g id="Gruppe_299-3" data-name="Gruppe 299" clip-path="url(#clip-path-2)">
        <path id="Pfad_99-2" data-name="Pfad 99" d="M2.355.037H.13A.112.112,0,0,0,.086.045.137.137,0,0,0,0,.173V.294A.451.451,0,0,0,.452.726H1.1a.063.063,0,0,1,.043.11l-.957.821A.47.47,0,0,0,0,2.028v.346a.474.474,0,0,0,.474.474H2a.474.474,0,0,0,.474-.474V2a.123.123,0,0,0-.123-.123H1.892A.123.123,0,0,0,1.769,2v.033a.123.123,0,0,1-.123.123H.8a.063.063,0,0,1-.041-.11L2.394.68h0A.227.227,0,0,0,2.477.51V.16A.123.123,0,0,0,2.355.037" transform="translate(0 -0.036)" fill="#292c28"/>
        <path id="Pfad_100-2" data-name="Pfad 100" d="M200.408,2.336c-.011-.177-.024-.377-.024-.912,0-.315.012-.581.023-.815.005-.112.01-.217.012-.311a.134.134,0,0,0-.039-.1.143.143,0,0,0-.1-.043h-.44a.143.143,0,0,0-.1.043.135.135,0,0,0-.039.1c0,.066,0,.12.005.174.006.174.012.353.012.942,0,.429-.017.789-.018.793a.07.07,0,0,1-.07.07h-.245a.071.071,0,0,1-.07-.071s-.023-.363-.023-.675c0-.274.022-.718.023-.722a.14.14,0,0,0-.141-.141h-.44a.14.14,0,0,0-.141.141s.021.484.021.75c0,.308-.021.642-.021.647a.07.07,0,0,1-.07.07h-.245a.071.071,0,0,1-.07-.071s-.017-.427-.017-.761c0-.278.006-.555.011-.8,0-.127.005-.248.006-.348a.137.137,0,0,0-.04-.1.14.14,0,0,0-.1-.042h-.44a.143.143,0,0,0-.1.043.135.135,0,0,0-.039.1c0,.1.008.233.013.369.01.25.022.533.022.8,0,.332-.013.588-.023.793,0,.1-.009.187-.012.271a.419.419,0,0,0,.12.306.45.45,0,0,0,.321.136h2.049a.453.453,0,0,0,.326-.139.409.409,0,0,0,.116-.3c0-.07-.007-.128-.011-.189" transform="translate(-194.584 -0.155)" fill="#292c28"/>
        <path id="Pfad_101-2" data-name="Pfad 101" d="M433.69,1.89h1.238a.45.45,0,0,0,.321-.136.42.42,0,0,0,.121-.307c0-.044,0-.092-.006-.142-.005-.11-.011-.2-.011-.357,0-.214.006-.367.012-.49,0-.056,0-.109.006-.159a.135.135,0,0,0-.039-.1.143.143,0,0,0-.1-.043h-2.184a.14.14,0,0,0-.1.042.137.137,0,0,0-.04.1c0,.1,0,.207.006.324.005.242.011.517.011.832,0,.357-.006.608-.012.811,0,.091,0,.177-.006.26a.428.428,0,0,0,.125.309.442.442,0,0,0,.317.133h1.331l.011,0h.239a.442.442,0,0,0,.442-.442V2.194a.141.141,0,0,0-.141-.14h-.434a.141.141,0,0,0-.141.141v.013a.07.07,0,0,1-.07.07h-.893a.07.07,0,0,1-.07-.07V1.96a.07.07,0,0,1,.07-.07m-.07-.724V.916a.07.07,0,0,1,.07-.07h.893a.07.07,0,0,1,.07.07v.249a.07.07,0,0,1-.07.07h-.893a.07.07,0,0,1-.07-.07" transform="translate(-426.544 -0.155)" fill="#292c28"/>
        <path id="Pfad_102-2" data-name="Pfad 102" d="M631.119,2.366c0-.085-.007-.181-.012-.283-.011-.213-.023-.454-.023-.737,0-.544-.014-.776,0-.981,0-.074.008-.144.011-.224a.134.134,0,0,0-.051-.11A.149.149,0,0,0,630.947,0h-.434a.148.148,0,0,0-.1.038.136.136,0,0,0-.044.1c0,.079,0,.148.005.221.006.2.012.435.012.987,0,.535-.006.808-.012,1.048,0,.092,0,.178-.006.271a.137.137,0,0,0,.045.1.147.147,0,0,0,.1.038h.165A.45.45,0,0,0,631,2.672a.42.42,0,0,0,.121-.307" transform="translate(-621.106 0.001)" fill="#292c28"/>
      </g>
    </g>
  </g>
</svg>
